<?xml version="1.0" encoding="UTF-8" standalone="no"?>
<!-- Created with Inkscape (http://www.inkscape.org/) -->

<svg
   version="1.1"
   id="svg2"
   width="250.81467"
   height="302.36133"
   viewBox="0 0 250.81467 302.36133"
   sodipodi:docname="BE_Bene_Logo.ai"
   xmlns:inkscape="http://www.inkscape.org/namespaces/inkscape"
   xmlns:sodipodi="http://sodipodi.sourceforge.net/DTD/sodipodi-0.dtd"
   xmlns="http://www.w3.org/2000/svg"
   xmlns:svg="http://www.w3.org/2000/svg">
  <defs
     id="defs6">
    <clipPath
       clipPathUnits="userSpaceOnUse"
       id="clipPath16">
      <path
         d="M 0,226.771 H 188.111 V 0 H 0 Z"
         id="path14" />
    </clipPath>
  </defs>
  <sodipodi:namedview
     id="namedview4"
     pagecolor="#ffffff"
     bordercolor="#000000"
     borderopacity="0.25"
     inkscape:showpageshadow="2"
     inkscape:pageopacity="0.0"
     inkscape:pagecheckerboard="0"
     inkscape:deskcolor="#d1d1d1" />
  <g
     id="g8"
     inkscape:groupmode="layer"
     inkscape:label="BE_Bene_Logo"
     transform="matrix(1.3333333,0,0,-1.3333333,0,302.36133)">
    <g
       id="g10">
      <g
         id="g12"
         clip-path="url(#clipPath16)">
        <g
           id="g18"
           transform="translate(88.3613,88.8643)">
          <path
             d="M 0,0 C 52.782,5.992 56.68,52.468 56.68,52.468 13.989,51.174 0,0 0,0"
             style="fill:#1d1d1b;fill-opacity:1;fill-rule:nonzero;stroke:none"
             id="path20" />
        </g>
        <g
           id="g22"
           transform="translate(75.0205,101.9707)">
          <path
             d="M 0,0 C 0,0 47.453,68.715 0,124.801 -0.003,124.806 -53.053,74.4 0,0"
             style="fill:#1d1d1b;fill-opacity:1;fill-rule:nonzero;stroke:none"
             id="path24" />
        </g>
        <g
           id="g26"
           transform="translate(21.0347,5.8613)">
          <path
             d="m 0,0 c 4.598,0 8.333,1.609 11.209,4.829 2.7,3.046 4.05,6.898 4.05,11.552 0,4.655 -1.35,8.506 -4.05,11.552 C 8.333,31.151 4.598,32.762 0,32.762 c -4.655,0 -8.333,-1.611 -11.035,-4.829 -2.586,-3.046 -3.88,-6.897 -3.88,-11.552 0,-4.654 1.294,-8.506 3.88,-11.552 C -8.333,1.609 -4.655,0 0,0 m -14.569,30.95 c 3.505,5.115 8.649,7.673 15.431,7.673 6.209,0 11.237,-2.155 15.088,-6.466 3.85,-4.254 5.776,-9.513 5.776,-15.776 C 21.726,10.115 19.8,4.857 15.95,0.604 12.099,-3.705 6.911,-5.861 0.388,-5.861 c -6.523,0 -11.51,2.527 -14.957,7.586 v -6.897 h -6.466 v 60.348 h 6.466 z"
             style="fill:#1d1d1b;fill-opacity:1;fill-rule:nonzero;stroke:none"
             id="path28" />
        </g>
        <g
           id="g30"
           transform="translate(69.915,38.623)">
          <path
             d="m 0,0 c -3.965,0 -7.298,-1.238 -9.999,-3.708 -2.53,-2.357 -4.082,-5.433 -4.656,-9.225 h 29.312 c -0.575,3.792 -2.126,6.868 -4.656,9.225 C 7.299,-1.238 3.968,0 0,0 m 0.52,-32.762 c 5.803,0 9.97,2.415 12.498,7.242 h 7.07 c -1.495,-3.91 -3.865,-7.07 -7.112,-9.483 -3.248,-2.413 -7.429,-3.62 -12.544,-3.62 -6.494,0 -11.782,2.156 -15.863,6.465 -3.965,4.195 -5.949,9.453 -5.949,15.777 0,6.38 1.898,11.638 5.691,15.777 4.022,4.31 9.252,6.465 15.689,6.465 6.438,0 11.668,-2.155 15.692,-6.465 3.792,-4.139 5.69,-9.397 5.69,-15.777 v -2.586 h -36.124 c 0.461,-3.966 2.041,-7.243 4.743,-9.828 2.759,-2.645 6.264,-3.967 10.519,-3.967"
             style="fill:#1d1d1b;fill-opacity:1;fill-rule:nonzero;stroke:none"
             id="path32" />
        </g>
        <g
           id="g34"
           transform="translate(105.6934,43.7949)">
          <path
             d="m 0,0 v -6.725 c 1.552,2.07 3.448,3.823 5.691,5.259 2.241,1.437 4.798,2.155 7.673,2.155 2.873,0 5.344,-0.402 7.413,-1.206 2.069,-0.806 3.88,-2.013 5.431,-3.621 3.564,-3.506 5.345,-8.135 5.345,-13.881 v -25.086 h -6.465 v 24.914 c 0,3.965 -1.121,7.126 -3.361,9.484 -2.243,2.356 -5.146,3.535 -8.707,3.535 -3.622,0 -6.698,-1.208 -9.227,-3.621 C 1.264,-11.266 0,-14.427 0,-18.276 V -43.105 H -6.465 V 0 Z"
             style="fill:#1d1d1b;fill-opacity:1;fill-rule:nonzero;stroke:none"
             id="path36" />
        </g>
        <g
           id="g38"
           transform="translate(166.731,38.623)">
          <path
             d="m 0,0 c -3.966,0 -7.299,-1.238 -10,-3.708 -2.53,-2.357 -4.082,-5.433 -4.656,-9.225 H 14.656 C 14.081,-9.141 12.529,-6.065 10,-3.708 7.298,-1.238 3.965,0 0,0 m 0.518,-32.762 c 5.805,0 9.969,2.415 12.5,7.242 h 7.07 c -1.496,-3.91 -3.867,-7.07 -7.112,-9.483 -3.249,-2.413 -7.431,-3.62 -12.545,-3.62 -6.495,0 -11.783,2.156 -15.863,6.465 -3.966,4.195 -5.948,9.453 -5.948,15.777 0,6.38 1.896,11.638 5.69,15.777 4.022,4.31 9.252,6.465 15.69,6.465 6.436,0 11.667,-2.155 15.691,-6.465 3.792,-4.139 5.689,-9.397 5.689,-15.777 v -2.586 h -36.123 c 0.459,-3.966 2.04,-7.243 4.743,-9.828 2.758,-2.645 6.264,-3.967 10.518,-3.967"
             style="fill:#1d1d1b;fill-opacity:1;fill-rule:nonzero;stroke:none"
             id="path40" />
        </g>
      </g>
    </g>
  </g>
</svg>
